<svg width="1526" height="267" viewBox="0 0 1526 267" fill="none" xmlns="http://www.w3.org/2000/svg">
<path d="M479.733 5.28198H479.157C464.165 5.28198 443.984 11.1508 430.146 16.4328C416.884 21.7148 407.658 26.9968 401.892 30.5181C423.226 39.9083 454.363 70.4264 435.912 104.466C420.343 132.636 371.332 137.918 347.115 139.092V139.679C364.413 144.374 379.981 154.938 381.134 166.676C382.288 176.653 377.675 187.804 364.989 204.823C352.881 221.256 341.925 232.407 340.772 244.732C340.196 248.84 343.079 254.709 351.151 254.709C364.413 254.709 381.134 244.145 397.856 230.646C409.964 220.669 416.884 214.214 423.803 207.758C426.686 204.823 430.722 201.889 432.452 203.65C433.605 204.823 433.029 206.584 429.569 210.105C420.92 218.322 409.964 228.886 396.126 240.037C386.324 247.666 365.566 264.686 337.312 266.447C302.716 268.207 294.067 254.709 293.491 240.624C293.491 225.951 303.293 210.692 315.978 196.607C328.087 183.109 341.925 166.676 343.079 160.22C345.385 149.656 337.312 144.961 332.7 142.027C329.817 143.2 325.78 143.787 322.897 143.787C320.014 143.787 317.131 143.2 314.825 142.613C307.329 152.004 298.104 162.568 287.148 172.545C243.903 213.627 186.819 232.994 172.981 237.689C184.513 241.21 214.496 249.427 231.794 248.84C242.75 248.84 251.975 245.906 260.624 240.624C266.39 237.102 268.12 233.581 269.273 233.581C271.58 233.581 271.003 237.689 265.237 243.558C251.399 257.056 232.371 262.925 211.037 262.925C196.045 262.925 166.062 258.817 146.457 252.948C123.393 259.991 80.7244 265.273 51.8942 264.686C28.8301 264.099 0 259.991 0 245.319C0 230.06 23.6407 212.453 59.9667 214.214C89.95 215.974 129.736 224.778 163.755 235.342C196.045 214.214 224.875 171.371 276.193 110.335C315.402 66.3182 354.611 42.8427 377.675 29.9312C355.764 21.7148 324.627 15.8459 284.842 15.8459C211.613 15.8459 128.582 59.8624 117.627 125.594C113.014 157.873 121.663 182.522 149.34 184.282C162.025 185.456 163.755 181.935 164.908 183.696C166.062 185.456 160.296 190.151 149.34 190.151C104.365 190.738 72.0753 162.568 77.8414 123.246C89.3734 46.3641 196.045 10.5639 284.842 10.5639C328.663 10.5639 364.413 16.4328 386.9 24.6492C396.126 19.3673 415.73 11.7377 426.109 8.80329C441.678 4.10821 460.129 0 479.733 0C497.031 0 515.483 5.28198 521.249 15.2591C524.132 19.9541 524.132 24.0623 522.979 24.0623C521.825 24.0623 522.979 22.8886 518.366 17.6066C510.87 9.39019 496.455 5.28198 479.733 5.28198ZM394.396 38.1476C381.134 49.8854 367.872 66.3182 354.034 85.6855C343.079 100.358 332.123 117.377 321.168 132.05C322.321 132.05 325.78 132.05 328.664 132.636C332.123 133.223 335.583 134.397 337.312 135.571C353.457 132.05 378.251 122.072 393.82 98.597C410.541 72.7739 408.811 50.4723 394.396 38.1476ZM136.078 250.014C116.474 244.732 77.2647 238.276 56.5071 236.515C27.6769 234.168 6.91923 237.102 6.91923 245.906C6.91923 255.296 35.7494 258.817 51.8942 259.404C80.1478 259.991 120.51 254.709 136.078 250.014Z" fill="black" fill-opacity="0.05"/>
<path d="M483.982 245.952H578.705V229.883H594.492V213.814H610.28V181.677H626.067V213.814H610.28V245.952H594.492V262.021H420.833V245.952H452.407V213.814H468.195V181.677H483.982V133.47H499.769V101.333H515.556V53.1265H499.769V37.0577H673.429V69.1953H657.641V117.402H641.854V53.1265H547.131V101.333H531.344V133.47H578.705V117.402H594.492V101.333H610.28V117.402H594.492V149.539H578.705V181.677H562.918V149.539H515.556V181.677H499.769V213.814H483.982V245.952Z" fill="black" fill-opacity="0.05"/>
<path d="M847.211 149.539H831.424V117.402H847.211V69.1953H862.999V53.1265H831.424V37.0577H910.36V53.1265H878.786V69.1953H862.999V117.402H847.211V149.539ZM720.914 117.402V85.2641H705.126V53.1265H689.339V37.0577H736.701V69.1953H752.488V101.333H768.275V133.47H784.062V165.608H799.85V197.746H815.637V229.883H799.85V245.952H784.062V213.814H768.275V181.677H752.488V149.539H736.701V117.402H720.914ZM689.339 101.333H705.126V133.47H689.339V181.677H673.552V213.814H657.765V181.677H673.552V133.47H689.339V101.333ZM831.424 165.608V197.746H815.637V165.608H831.424ZM641.977 245.952V229.883H657.765V245.952H689.339V262.021H610.403V245.952H641.977Z" fill="black" fill-opacity="0.05"/>
<path d="M973.571 197.746H989.358V181.677H973.571V85.2641H957.784V101.333H941.996V117.402H926.209V101.333H941.996V85.2641H957.784V69.1953H973.571V37.0577H989.358V69.1953H1005.15V245.952H1020.93V262.021H957.784V245.952H973.571V197.746ZM910.422 149.539V133.47H926.209V149.539H910.422V165.608H894.635V181.677H878.848V165.608H894.635V149.539H910.422ZM863.06 197.746H878.848V213.814H863.06V229.883H847.273V245.952H878.848V262.021H799.911V245.952H831.486V229.883H847.273V213.814H863.06V197.746Z" fill="black" fill-opacity="0.05"/>
<path d="M1099.93 229.883H1084.14V245.952H1115.72V262.021H1020.99V245.952H1052.57V229.883H1068.36V181.677H1084.14V149.539H1099.93V101.333H1115.72V53.1265H1099.93V37.0577H1194.65V53.1265H1163.08V69.1953H1147.29V101.333H1131.5V149.539H1115.72V181.677H1099.93V229.883Z" fill="black" fill-opacity="0.05"/>
<path d="M1336.62 53.1265H1320.83V37.0577H1336.62V53.1265ZM1257.68 245.952V262.021H1178.74V245.952H1162.96V229.883H1147.17V245.952H1131.38V213.814H1147.17V181.677H1162.96V229.883H1178.74V245.952H1241.89V229.883H1257.68V181.677H1241.89V165.608H1226.1V149.539H1194.53V133.47H1178.74V69.1953H1194.53V53.1265H1210.32V37.0577H1289.25V53.1265H1320.83V101.333H1305.04V117.402H1289.25V69.1953H1273.47V53.1265H1210.32V117.402H1226.1V133.47H1257.68V149.539H1273.47V165.608H1289.25V229.883H1273.47V245.952H1257.68Z" fill="black" fill-opacity="0.05"/>
<path d="M1336.55 245.952H1431.28V229.883H1447.06V213.814H1462.85V181.677H1478.64V213.814H1462.85V245.952H1447.06V262.021H1273.4V245.952H1304.98V213.814H1320.77V181.677H1336.55V133.47H1352.34V101.333H1368.13V53.1265H1352.34V37.0577H1526V69.1953H1510.21V117.402H1494.43V53.1265H1399.7V101.333H1383.92V133.47H1431.28V117.402H1447.06V101.333H1462.85V117.402H1447.06V149.539H1431.28V181.677H1415.49V149.539H1368.13V181.677H1352.34V213.814H1336.55V245.952Z" fill="black" fill-opacity="0.05"/>
</svg>

