<svg width="16.6057" height="16.6057" overflow="visible" style="display: block;" viewBox="0 0 16.6057 16.6057" fill="none" xmlns="http://www.w3.org/2000/svg">
<g id="Union">
<mask id="path-1-outside-1_0_234" maskUnits="userSpaceOnUse" x="-0.946633" y="-0.94665" width="18" height="18" fill="black">
<rect fill="white" x="-0.946633" y="-0.94665" width="18" height="18"/>
<path d="M8.7272 0.064092C13.0862 0.284888 16.5524 3.88949 16.5524 8.30335L16.5416 8.72718C16.3209 13.086 12.717 16.5522 8.30337 16.5524L7.87856 16.5416C3.66018 16.3278 0.277785 12.9456 0.0641091 8.72718L0.0533669 8.30335C0.0533669 3.74721 3.74723 0.0533498 8.30337 0.0533498L8.7272 0.064092ZM8.30337 1.17054C4.3644 1.17054 1.17055 4.36438 1.17055 8.30335C1.17076 12.2421 4.36453 15.4352 8.30337 15.4352C12.242 15.435 15.435 12.242 15.4352 8.30335C15.4352 4.36451 12.2422 1.17075 8.30337 1.17054ZM12.319 12.0592H11.2497L10.2516 9.5719H6.35903L5.37368 12.0592H4.31704L7.72915 3.50452H8.85805L12.319 12.0592ZM8.28188 4.5973C7.77725 5.94298 7.26816 7.26549 6.75552 8.56312L6.71938 8.65882H9.89126L9.84341 8.55042C9.45894 7.59725 8.93864 6.27924 8.28188 4.5973Z"/>
</mask>
<path d="M8.7272 0.064092C13.0862 0.284888 16.5524 3.88949 16.5524 8.30335L16.5416 8.72718C16.3209 13.086 12.717 16.5522 8.30337 16.5524L7.87856 16.5416C3.66018 16.3278 0.277785 12.9456 0.0641091 8.72718L0.0533669 8.30335C0.0533669 3.74721 3.74723 0.0533498 8.30337 0.0533498L8.7272 0.064092ZM8.30337 1.17054C4.3644 1.17054 1.17055 4.36438 1.17055 8.30335C1.17076 12.2421 4.36453 15.4352 8.30337 15.4352C12.242 15.435 15.435 12.242 15.4352 8.30335C15.4352 4.36451 12.2422 1.17075 8.30337 1.17054ZM12.319 12.0592H11.2497L10.2516 9.5719H6.35903L5.37368 12.0592H4.31704L7.72915 3.50452H8.85805L12.319 12.0592ZM8.28188 4.5973C7.77725 5.94298 7.26816 7.26549 6.75552 8.56312L6.71938 8.65882H9.89126L9.84341 8.55042C9.45894 7.59725 8.93864 6.27924 8.28188 4.5973Z" fill="var(--fill-0, white)"/>
<path d="M8.7272 0.064092L8.72989 0.0107935L8.72855 0.0107593L8.7272 0.064092ZM16.5524 8.30335L16.6057 8.3047V8.30335H16.5524ZM16.5416 8.72718L16.5949 8.72988L16.595 8.72853L16.5416 8.72718ZM8.30337 16.5524L8.30202 16.6057H8.30337L8.30337 16.5524ZM7.87856 16.5416L7.87586 16.5949L7.87721 16.595L7.87856 16.5416ZM0.0641091 8.72718L0.0107594 8.72853L0.0108276 8.72988L0.0641091 8.72718ZM0.0533669 8.30335H0L3.42615e-05 8.3047L0.0533669 8.30335ZM8.30337 0.0533498L8.30472 0H8.30337V0.0533498ZM8.30337 1.17054L8.30337 1.11719H8.30337V1.17054ZM1.17055 8.30335H1.1172V8.30335L1.17055 8.30335ZM8.30337 15.4352V15.4885H8.30337L8.30337 15.4352ZM15.4352 8.30335L15.4886 8.30335V8.30335H15.4352ZM12.319 12.0592V12.1126H12.3981L12.3684 12.0392L12.319 12.0592ZM11.2497 12.0592L11.2001 12.0791L11.2136 12.1126H11.2497V12.0592ZM10.2516 9.5719L10.3011 9.55204L10.2877 9.51855H10.2516V9.5719ZM6.35903 9.5719V9.51855H6.32278L6.30943 9.55226L6.35903 9.5719ZM5.37368 12.0592V12.1126H5.40993L5.42328 12.0789L5.37368 12.0592ZM4.31704 12.0592L4.26749 12.0394L4.23832 12.1126H4.31704V12.0592ZM7.72915 3.50452V3.45117H7.69299L7.67959 3.48476L7.72915 3.50452ZM8.85805 3.50452L8.90751 3.48451L8.89402 3.45117H8.85805V3.50452ZM8.28188 4.5973L8.33158 4.57789L8.28088 4.44804L8.23193 4.57856L8.28188 4.5973ZM6.75552 8.56312L6.70589 8.54351L6.7056 8.54427L6.75552 8.56312ZM6.71938 8.65882L6.66947 8.63997L6.64221 8.71217H6.71938V8.65882ZM9.89126 8.65882V8.71217H9.97312L9.94006 8.63727L9.89126 8.65882ZM9.84341 8.55042L9.7939 8.57039L9.7946 8.57197L9.84341 8.55042ZM8.7272 0.064092L8.7245 0.117373C13.0552 0.33674 16.499 3.91805 16.499 8.30335H16.5524H16.6057C16.6057 3.86093 13.1171 0.233037 8.72989 0.0108105L8.7272 0.064092ZM16.5524 8.30335L16.4991 8.302L16.4883 8.72583L16.5416 8.72718L16.595 8.72853L16.6057 8.3047L16.5524 8.30335ZM16.5416 8.72718L16.4884 8.72448C16.269 13.0551 12.6885 16.4988 8.30336 16.499L8.30337 16.5524L8.30337 16.6057C12.7456 16.6055 16.3727 13.117 16.5949 8.72988L16.5416 8.72718ZM8.30337 16.5524L8.30472 16.499L7.87991 16.4883L7.87856 16.5416L7.87721 16.595L8.30202 16.6057L8.30337 16.5524ZM7.87856 16.5416L7.88126 16.4883C3.69022 16.276 0.329681 12.9155 0.117391 8.72448L0.0641091 8.72718L0.0108276 8.72988C0.225888 12.9756 3.63014 16.3797 7.87586 16.5949L7.87856 16.5416ZM0.0641091 8.72718L0.117442 8.72583L0.1067 8.302L0.0533669 8.30335L3.42615e-05 8.3047L0.0107764 8.72853L0.0641091 8.72718ZM0.0533669 8.30335H0.106717C0.106717 3.77668 3.7767 0.1067 8.30337 0.1067V0.0533498V0C3.71777 0 1.71326e-05 3.71775 1.71326e-05 8.30335H0.0533669ZM8.30337 0.0533498L8.30202 0.106682L8.72584 0.117425L8.7272 0.064092L8.72855 0.0107593L8.30472 1.71289e-05L8.30337 0.0533498ZM8.30337 1.17054V1.11719C4.33493 1.11719 1.1172 4.33492 1.1172 8.30335H1.17055H1.2239C1.2239 4.39384 4.39386 1.22389 8.30337 1.22389V1.17054ZM1.17055 8.30335L1.1172 8.30335C1.11742 12.2716 4.33507 15.4885 8.30337 15.4885V15.4352V15.3818C4.39398 15.3818 1.22411 12.2127 1.2239 8.30335L1.17055 8.30335ZM8.30337 15.4352L8.30337 15.4885C12.2715 15.4883 15.4883 12.2715 15.4886 8.30335L15.4352 8.30335L15.3819 8.30335C15.3816 12.2125 12.2126 15.3816 8.30336 15.3818L8.30337 15.4352ZM15.4352 8.30335H15.4886C15.4886 4.33505 12.2716 1.1174 8.30337 1.11719L8.30337 1.17054L8.30336 1.22389C12.2127 1.22409 15.3819 4.39397 15.3819 8.30335H15.4352ZM12.319 12.0592V12.0059H11.2497V12.0592V12.1126H12.319V12.0592ZM11.2497 12.0592L11.2992 12.0393L10.3011 9.55204L10.2516 9.5719L10.2021 9.59177L11.2001 12.0791L11.2497 12.0592ZM10.2516 9.5719V9.51855H6.35903V9.5719V9.62525H10.2516V9.5719ZM6.35903 9.5719L6.30943 9.55226L5.32408 12.0396L5.37368 12.0592L5.42328 12.0789L6.40863 9.59155L6.35903 9.5719ZM5.37368 12.0592V12.0059H4.31704V12.0592V12.1126H5.37368V12.0592ZM4.31704 12.0592L4.36659 12.079L7.7787 3.52429L7.72915 3.50452L7.67959 3.48476L4.26749 12.0394L4.31704 12.0592ZM7.72915 3.50452V3.55787H8.85805V3.50452V3.45117H7.72915V3.50452ZM8.85805 3.50452L8.8086 3.52453L12.2695 12.0792L12.319 12.0592L12.3684 12.0392L8.90751 3.48451L8.85805 3.50452ZM8.28188 4.5973L8.23193 4.57856C7.7274 5.92396 7.21842 7.24618 6.7059 8.54351L6.75552 8.56312L6.80513 8.58272C7.31789 7.2848 7.8271 5.962 8.33184 4.61603L8.28188 4.5973ZM6.75552 8.56312L6.7056 8.54427L6.66947 8.63997L6.71938 8.65882L6.76929 8.67766L6.80543 8.58196L6.75552 8.56312ZM6.71938 8.65882V8.71217H9.89126V8.65882V8.60547H6.71938V8.65882ZM9.89126 8.65882L9.94006 8.63727L9.89221 8.52887L9.84341 8.55042L9.7946 8.57197L9.84245 8.68036L9.89126 8.65882ZM9.84341 8.55042L9.89288 8.53046C9.50852 7.57757 8.98832 6.25978 8.33158 4.57789L8.28188 4.5973L8.23219 4.6167C8.88897 6.2987 9.40935 7.61693 9.79393 8.57038L9.84341 8.55042Z" fill="var(--stroke-0, white)" mask="url(#path-1-outside-1_0_234)"/>
</g>
</svg>
