<svg width="201.477" height="26.3223" overflow="visible" style="display: block;" viewBox="0 0 201.477 26.3223" fill="none" xmlns="http://www.w3.org/2000/svg">
<g id="Studio Artifice">
<path d="M10.3795 26.0067C7.22355 26.0067 4.7105 25.2937 2.84033 23.8677C0.970153 22.4183 0.0233772 20.1975 0 17.2052H3.05072C3.12085 21.2962 5.56377 23.3417 10.3795 23.3417C12.3899 23.3417 13.9445 22.9443 15.0432 22.1495C16.1419 21.3547 16.6913 20.1975 16.6913 18.678C16.6913 17.4858 16.2355 16.5624 15.3237 15.9078C14.412 15.2299 12.8695 14.7276 10.6487 14.2367L8.43951 13.7458C6.03166 13.2081 4.16148 12.4016 2.82898 11.3262C1.51986 10.2275 0.8653 8.62618 0.8653 6.52223C0.8653 4.53517 1.63675 2.95721 3.17964 1.78835C4.72254 0.596118 6.79142 0 9.38628 0C11.163 0 12.6942 0.210395 13.9799 0.631184C15.2656 1.05197 16.2709 1.64809 16.9956 2.41954C17.7203 3.16761 18.2462 3.98581 18.5735 4.87414C18.9242 5.76248 19.1112 6.74432 19.1346 7.81967H16.1189C15.9787 6.08976 15.4059 4.80401 14.4007 3.96243C13.4188 3.09748 11.7474 2.665 9.38628 2.665C7.60962 2.665 6.25374 3.01566 5.31865 3.71697C4.38357 4.39491 3.91602 5.33 3.91602 6.52223C3.91602 7.76123 4.31343 8.71969 5.10826 9.39763C5.92646 10.0522 7.48104 10.6366 9.77201 11.1509L11.9812 11.6418C14.7864 12.2496 16.7852 13.1263 17.9774 14.2718C19.1696 15.4173 19.742 17.2049 19.742 19.0517C19.742 21.2959 18.9121 22.7106 17.2524 24.0431C15.616 25.3522 13.325 26.0067 10.3795 26.0067Z" fill="var(--fill-0, white)"/>
<path d="M29.7589 10.2622H26.0419V22.0092C26.0419 23.0378 26.7316 23.5521 28.1108 23.5521H29.7589V25.9015C28.9875 25.9717 28.3212 26.0067 27.7602 26.0067C24.7445 26.0067 23.2367 24.7561 23.2367 22.2547V10.2622H20.2561V7.8076H23.2367V2.688H26.0419V7.8076H29.7589V10.2622Z" fill="var(--fill-0, white)"/>
<path d="M43.6967 7.8076H46.502V25.9015H43.837V23.2015C42.4811 25.282 40.5875 26.3223 38.1563 26.3223C36.1459 26.3223 34.5796 25.773 33.4575 24.6742C32.3354 23.5755 31.7743 22.0326 31.7743 20.0456V7.8076H34.5796V19.765C34.5796 22.4534 35.9588 23.7976 38.7173 23.7976C40.0265 23.7976 41.1836 23.3067 42.1889 22.3248C43.1941 21.343 43.6967 19.917 43.6967 18.0468V7.8076Z" fill="var(--fill-0, white)"/>
<path d="M62.9938 0.934711H65.7991V25.9015H63.1341V23.0963C61.7081 25.247 59.6392 26.3223 56.9274 26.3223C54.3793 26.3223 52.3338 25.4691 50.7909 23.7625C49.2714 22.0326 48.5116 19.73 48.5116 16.8546C48.5116 13.9792 49.2714 11.6882 50.7909 9.98168C52.3338 8.25177 54.3793 7.38681 56.9274 7.38681C59.5457 7.38681 61.5678 8.39203 62.9938 10.4025V0.934711ZM53.0351 22.0092C54.0871 23.2015 55.5014 23.7976 57.2781 23.7976C59.0548 23.7976 60.4691 23.1898 61.521 21.9742C62.573 20.7352 63.099 19.0287 63.099 16.8546C63.099 14.6805 62.573 12.9856 61.521 11.77C60.4691 10.531 59.0548 9.91155 57.2781 9.91155C55.5248 9.91155 54.1105 10.5544 53.0351 11.8402C51.9832 13.1025 51.4572 14.8208 51.4572 16.9948C51.4572 19.1455 51.9832 20.817 53.0351 22.0092Z" fill="var(--fill-0, white)"/>
<path d="M68.9487 5.07247V2.13427H71.9292V5.07247H68.9487ZM69.0538 25.9015V7.8076H71.8591V25.9015H69.0538Z" fill="var(--fill-0, white)"/>
<path d="M89.3262 23.7275C87.6898 25.4574 85.5859 26.3223 83.0144 26.3223C80.4429 26.3223 78.3389 25.4574 76.7025 23.7275C75.0661 21.9976 74.2479 19.7066 74.2479 16.8546C74.2479 14.0026 75.0661 11.7116 76.7025 9.98168C78.3389 8.25177 80.4429 7.38681 83.0144 7.38681C85.5859 7.38681 87.6898 8.25177 89.3262 9.98168C90.9626 11.7116 91.7808 14.0026 91.7808 16.8546C91.7808 19.7066 90.9626 21.9976 89.3262 23.7275ZM78.7714 21.9742C79.8234 23.1898 81.2377 23.7976 83.0144 23.7976C84.791 23.7976 86.2054 23.1898 87.2573 21.9742C88.3093 20.7352 88.8353 19.0287 88.8353 16.8546C88.8353 14.6805 88.3093 12.9856 87.2573 11.77C86.2054 10.531 84.791 9.91155 83.0144 9.91155C81.2377 9.91155 79.8234 10.531 78.7714 11.77C77.7194 12.9856 77.1935 14.6805 77.1935 16.8546C77.1935 19.0287 77.7194 20.7352 78.7714 21.9742Z" fill="var(--fill-0, white)"/>
<path d="M118.557 25.9015L115.647 18.6429H104.285L101.41 25.9015H98.3241L108.283 0.934711H111.579L121.678 25.9015H118.557ZM105.337 15.9779H114.595L114.454 15.6623C113.332 12.8805 111.813 9.0349 109.896 4.1257C108.423 8.05306 106.939 11.9103 105.442 15.6974L105.337 15.9779Z" fill="var(--fill-0, white)"/>
<path d="M131.279 7.4877C131.911 7.43395 132.213 7.43395 132.773 7.46385V10.2375H132.076C130.241 10.2375 128.801 10.6941 127.756 11.6073C126.71 12.5204 126.188 13.8433 126.188 15.576V25.9015H123.4V7.77907H126.048V10.9751C127.279 8.6571 128.663 7.71005 131.279 7.4877Z" fill="var(--fill-0, white)"/>
<path d="M142.974 10.2622H139.257V22.0092C139.257 23.0378 139.947 23.5521 141.326 23.5521H142.974V25.9015C142.203 25.9717 141.537 26.0067 140.975 26.0067C137.96 26.0067 136.452 24.7561 136.452 22.2547V10.2622H133.471V7.43395H136.452V2.688H139.257V7.43395H142.974V10.2622Z" fill="var(--fill-0, white)"/>
<path d="M145.258 5.07247V2.00968H148.239V5.07247H145.258ZM145.363 25.9015V7.8076H148.169V25.9015H145.363Z" fill="var(--fill-0, white)"/>
<path d="M152.837 5.94912C152.837 2.55942 154.52 0.864578 157.886 0.864578C158.517 0.864578 159.113 0.887956 159.674 0.934711V3.31918H158.061C156.448 3.31918 155.642 4.17245 155.642 5.87898V7.8076H159.499V10.2622H155.642V25.9015H152.837V10.2622H149.856V7.8076H152.837V5.94912ZM161.826 2.00968H164.806V5.07247H161.826V2.00968ZM161.931 25.9015V7.8076H164.736V25.9015H161.931Z" fill="var(--fill-0, white)"/>
<path d="M175.49 26.3223C172.989 26.3223 170.967 25.4691 169.424 23.7625C167.881 22.0326 167.11 19.73 167.11 16.8546C167.11 13.9558 167.87 11.6531 169.389 9.94662C170.932 8.24008 172.966 7.38681 175.49 7.38681C177.641 7.38681 179.406 7.98293 180.785 9.17517C182.165 10.344 182.995 11.9337 183.275 13.9441H180.365C180.131 12.635 179.558 11.6415 178.646 10.9635C177.758 10.2622 176.706 9.91155 175.49 9.91155C173.877 9.91155 172.568 10.5077 171.563 11.6999C170.558 12.8688 170.055 14.587 170.055 16.8546C170.055 19.1222 170.558 20.8521 171.563 22.0443C172.592 23.2132 173.901 23.7976 175.49 23.7976C176.706 23.7976 177.77 23.4469 178.681 22.7456C179.593 22.0443 180.166 21.0274 180.4 19.6949H183.275C182.971 21.7521 182.106 23.3768 180.68 24.569C179.278 25.7379 177.548 26.3223 175.49 26.3223Z" fill="var(--fill-0, white)"/>
<path d="M201.477 16.8546V17.8364H187.731C187.871 19.8235 188.421 21.3079 189.379 22.2898C190.361 23.2716 191.67 23.7625 193.306 23.7625C195.808 23.7625 197.409 22.6404 198.11 20.3962H201.021C200.553 22.1729 199.653 23.6106 198.321 24.7093C197.012 25.7847 195.317 26.3223 193.236 26.3223C190.735 26.3223 188.701 25.4691 187.135 23.7625C185.592 22.056 184.82 19.7533 184.82 16.8546C184.82 14.0026 185.58 11.7116 187.1 9.98168C188.643 8.25177 190.665 7.38681 193.166 7.38681C195.761 7.38681 197.795 8.28684 199.268 10.0869C200.74 11.8869 201.477 14.1428 201.477 16.8546ZM193.166 9.94662C191.717 9.94662 190.513 10.4025 189.554 11.3142C188.619 12.2259 188.035 13.5584 187.801 15.3117H198.461C198.321 13.7454 197.783 12.4597 196.848 11.4544C195.936 10.4492 194.709 9.94662 193.166 9.94662Z" fill="var(--fill-0, white)"/>
</g>
</svg>
